<svg xmlns="http://www.w3.org/2000/svg" xmlns:xlink="http://www.w3.org/1999/xlink" viewBox="0 0 100 100"><defs><clipPath id="a"><rect x="-43" y="-6.33" width="161" height="147.65" fill="none"/></clipPath></defs><title>GN-Bolt-Pattern</title><g clip-path="url(#a)"><rect x="5.47" y="1.09" width="94.53" height="97.23" fill="none"/><path d="M86.59,62.74l-.37.94.17-1.32-.62,2.27.11-.82L83,70.64l-2.11,3.27,1.46-1.73L81,75.3l0-.61L80.65,76l-.75-.8-.1-.11-2.31-2.78-.42-.53-2.31-3.12.09,1.2-.23-.68.07.89-.11-.29-1.33,5.78-.18,2.18L73,76.85l-.13.56-.51.93.4-.45-1.26,5.5L71.22,86l.12-3.12L70.23,88l.54-1.59-1.49,6.48.62-1.06,0,.61L70.28,91l.13.58.42-1.34-.11.81,1.21-2.78-.31,1.89L72.48,87l.3-.68.86-2,.46-2.14.21.56,1-2.18-.06.3.42-1.44-.11,1,.34-.23.3.57,5.31,6.6.33-1.54.06.21.2-1.43,0,.59,2.67-13.8L85.64,70l-.77,1,1.73-8.23M77.21,80.37l3.66,3.51.7-1.33-.32.33,2.34-8.81-.39,2,.15-.32-.22,1.73,0-.4L81.49,85l0-.69-.17,1.2s0,0,0,0h0l-3.53-4,.37.27Zm-2-9.41-.14-.64,3.37,3.93-.28-.18L79,75.49,75.82,72.3l.45.15L75.62,72l-.28-.28,0,.2-2.74,9.73.12-.86-.16.22.23-.53h-.09l2.27-10.15Z" fill="#cc9a40"/><path d="M86.24,62.64l-.37.94L86,62.26l-.62,2.27.11-.82-2.92,6.83L80.5,73.81,82,72.08,80.69,75.2l0-.61-.43,1.34-.75-.8-.1-.11-2.31-2.78-.42-.53L74.41,68.6l.09,1.19-.22-.68.06.89-.11-.29L72.9,75.5l-.18,2.17-.11-.92-.13.56-.51.93.4-.45-1.26,5.5-.24,2.57L71,82.74l-1.11,5.12.54-1.59-1.49,6.48.62-1.06,0,.61.42-1.44.13.58.43-1.34-.12.81,1.22-2.78L71.27,90l.86-3.14.3-.68.86-2,.46-2.14.21.56,1-2.18-.06.31.42-1.45-.1,1,.33-.23.31.57,5.31,6.6.32-1.54.07.21.19-1.43,0,.59,2.67-13.8L85.29,70l-.77,1,1.73-8.23M76.86,80.27l3.66,3.51.71-1.33-.33.34L83.24,74l-.39,2,.15-.32-.22,1.73,0-.4-1.61,7.86,0-.69-.17,1.2h0l-3.53-4,.37.27Zm-2-9.41-.14-.64,3.37,3.93L77.79,74l.9,1.41L75.47,72.2l.45.15-.65-.43L75,71.64l0,.2-2.74,9.73.12-.86-.16.22.23-.53h-.09l2.27-10.15Z" fill="#ffc64f"/><path d="M71.42,50l-3.17,6.28,0-1.13-.16,1.42L62.65,66.94,63,66.6l-.62,1,.15-.08-.59,1.17,6.69-.53.49-.15.08.37.46-.69-.48,1.17.12-.23-.52,2,.42-.2-.82,1.63-.48,1.81-.17.63-1.08,2.53.78-1.39-.68,2.54.35-.58-.43,1.12.38-.28-.48,1.18.29-.4-.16,1.07,2.41-5-.48,1.35,1.94-3.92-1.53,2L70.21,73l2.05-4.26v.55l.16-.92.21-.44-.54.5,1-1.47,2.15-4.49-.22.11.51-.51-.49.27.67-.68-3,.38-.54,0-2.86.17h-1l.42-1.12-.28.4.82-2.79v2.06l.37-3.46,1.7-6.2-.34.58.78-1.82-.58.93.26-.83M67,67.47l.37.08-4.27.14h0l.52-.86-.39.4,3-6-.22.23.75-1.22-.07.3.8-1.52-3.09,7.05,0-.43L64.11,67l4.08.29Zm7.8-4.91-3.82,7.83,0-.06-.13.47,0-.24-.37.62,3.31-7.89.08-.15-.32,0L72.85,63l.36.2L69.57,63l1.29-.28-.26-.08,4.11-.17-.42.29Z" fill="#cc9a40"/><path d="M71.12,49.84,68,56.12,68,55l-.17,1.41L62.35,66.77l.34-.34-.62,1,.15-.08-.59,1.17L68.32,68l.49-.15.08.37.46-.69-.48,1.17.12-.23-.52,2,.43-.2-.83,1.63-.48,1.81-.17.62-1.08,2.54.78-1.39L66.44,78l.35-.58-.43,1.12.39-.28-.49,1.18.29-.4-.16,1.07,2.41-5-.48,1.35,1.94-3.92-1.53,2,1.18-1.76,2-4.26v.55l.16-.92.21-.44-.54.5,1-1.47L75,62.28l-.21.11.5-.51-.49.27.67-.68-3,.38-.54,0L69,62.07H68l.43-1.13-.29.41L69,58.56v2.06l.38-3.46L71,51l-.35.58.78-1.82-.58.93.26-.83M66.67,67.3l.36.08-4.27.14h0l.52-.86-.39.4,3.05-6-.22.23.75-1.22-.07.3.8-1.52-3.09,7.05,0-.43-.25,1.3,4.08.29Zm7.8-4.91-3.82,7.83-.05-.06-.13.47v-.24l-.37.62,3.31-7.89L73.5,63l-.32,0-.62-.16.36.2-3.65-.18,1.29-.27-.26-.08,4.11-.17-.41.29Z" fill="#ffc64f"/><path d="M44.8,16.66l-.37.94.17-1.32L44,18.54l.12-.81-2.92,6.82-2.12,3.28,1.46-1.73-1.27,3.11,0-.6L38.86,30l-.76-.81L38,29l-2.3-2.77q-.23-.27-.42-.54L33,22.61l.09,1.19-.23-.68.07.9-.11-.29-1.33,5.78-.18,2.17-.11-.92-.13.57-.51.93.4-.46-1.27,5.51-.23,2.56.12-3.11-1.11,5.11L29,40.28l-1.49,6.49.62-1.06,0,.6.41-1.44.14.59L29,44.12l-.11.81,1.21-2.78L29.82,44l.87-3.14.29-.68.87-2,.45-2.15.22.56,1-2.18-.07.31.42-1.44-.1,1,.34-.23.3.57,5.31,6.59L40,39.75l.07.21.19-1.44,0,.6L43,25.31,43.85,24l-.78,1,1.74-8.24m-9.4,17.59,3.66,3.51.71-1.33-.32.33L41.8,28l-.39,2,.15-.31-.23,1.72,0-.4L39.7,38.88l-.05-.7-.17,1.21h0l-3.52-4,.37.26Zm-2-9.42-.15-.63,3.37,3.92L36.35,28l.89,1.42L34,26.21l.45.16-.64-.44-.28-.27,0,.2-2.74,9.73.12-.86-.16.21.22-.52h-.08l2.27-10.16Z" fill="#cc9a40"/><path d="M44.45,16.56l-.37.94.17-1.32-.62,2.26.11-.81-2.92,6.82L38.7,27.73,40.16,26,38.9,29.11l0-.6-.43,1.34L37.76,29l-.11-.11-2.3-2.77-.42-.54-2.31-3.11.09,1.19L32.48,23l.07.9-.11-.29-1.33,5.78-.18,2.18-.11-.93-.13.57-.51.93.4-.46-1.26,5.51-.24,2.56.12-3.11-1.11,5.11.54-1.59-1.49,6.49.62-1.06,0,.6.42-1.44.13.59L28.69,44l-.11.81,1.21-2.78-.31,1.89.86-3.14.3-.68.86-2L32,36l.22.56,1-2.18-.07.31.42-1.44-.1,1,.34-.23.3.57,5.31,6.59.33-1.53.06.21.2-1.44,0,.6,2.67-13.81.85-1.35-.77,1,1.73-8.23m-9.4,17.58,3.67,3.51.7-1.33-.32.33,2.34-8.82-.39,2,.15-.31L41,31.31l0-.39-1.61,7.86-.05-.7-.17,1.21h0l-3.52-4,.37.26Zm-2-9.42-.14-.63,3.37,3.92L36,27.89l.89,1.42-3.21-3.2.45.16-.65-.44-.28-.27,0,.2-2.74,9.73.12-.86-.16.21.22-.52h-.08l2.27-10.16Z" fill="#ffc64f"/><path d="M29.62,3.93,26.46,10.2l0-1.12-.17,1.41L20.86,20.86l.33-.34-.62,1,.15-.09-.59,1.17,6.7-.52.48-.15.09.37.46-.7-.49,1.18.12-.24-.51,2,.42-.21L26.58,26l-.49,1.81-.16.62L24.85,31l.77-1.39L25,32.13l.34-.58-.42,1.12.38-.28-.48,1.18.28-.41-.16,1.08,2.42-5-.49,1.35,1.95-3.92-1.53,2,1.17-1.75,2.05-4.27,0,.55.16-.92.21-.44-.54.51,1-1.48,2.15-4.48-.22.11.5-.52-.49.27.67-.68-3,.38-.54.05-2.86.18h-1L26.92,15l-.28.41.81-2.79,0,2,.37-3.45,1.7-6.2-.35.58L30,3.81l-.57.93.25-.83M25.17,21.38l.37.09-4.27.14h0l.51-.86-.39.39,3.06-6-.23.23L25,14.18l-.07.29.8-1.51-3.09,7,0-.42-.24,1.3,4.08.28ZM33,16.47l-3.82,7.84,0-.07-.13.48v-.24l-.37.61,3.31-7.88.08-.15-.31,0-.63-.16.36.2-3.64-.18,1.28-.28-.26-.08,4.12-.17-.42.3Z" fill="#cc9a40"/><path d="M29.33,3.76,26.16,10l0-1.12L26,10.32,20.56,20.69l.33-.34-.61,1,.14-.09-.58,1.17,6.69-.52.48-.15.09.37.46-.7-.48,1.18.11-.24-.51,2,.42-.21-.82,1.64-.48,1.81-.17.62L24.55,30.8l.78-1.39L24.65,32l.34-.58-.42,1.12.38-.28-.48,1.18.28-.41-.16,1.08L27,29l-.48,1.35,1.94-3.92-1.53,2,1.18-1.75,2-4.27,0,.55.16-.92.21-.44-.54.51,1-1.48,2.15-4.48-.22.11.5-.52-.49.27.67-.68-3,.38-.54.05L27.2,16h-1l.42-1.12-.28.4.81-2.78,0,2,.37-3.45,1.7-6.2-.34.58.78-1.82-.58.93.25-.83M24.87,21.21l.37.09L21,21.43h0l.52-.86-.39.39,3.05-6-.22.23L24.65,14l-.06.29.8-1.51-3.09,7,0-.42L22,20.71,26.1,21Zm7.8-4.91-3.82,7.84-.05-.07-.13.48,0-.24-.37.61L31.63,17l.08-.15-.32,0-.63-.17.36.21-3.64-.18,1.28-.28-.26-.08,4.12-.17-.42.3Z" fill="#ffc64f"/></g></svg>