<svg xmlns="http://www.w3.org/2000/svg" viewBox="0 0 294.7 307.11">
	<defs>
		<style>.cls-1{fill:#63b7c3;}.cls-2{fill:#090909;}.cls-3{fill:#ffc642;}</style>
	</defs>
	<title>helm-icon</title>
	<rect class="cls-1" x="258.56" y="231.3" width="36.14" height="9.46" rx="4.29"/>
	<path class="cls-1" d="M158,293a4.71,4.71,0,0,1-4.71,4.71H122.35a4.71,4.71,0,1,0,0,9.42H266a4.71,4.71,0,0,0,0-9.42H198.37a4.71,4.71,0,0,1,0-9.42h22.74a4.71,4.71,0,1,0,0-9.42H71.93a4.71,4.71,0,1,0,0,9.42h81.31A4.71,4.71,0,0,1,158,293Z"/>
	<rect class="cls-1" x="3.01" y="260.27" width="79.09" height="9.88" rx="4.4"/>
	<path class="cls-2 animation-element rotate" d="M282.42,138.07H254a109.33,109.33,0,0,0-27.71-66.76l20.14-20.14a6.28,6.28,0,0,0,0-8.88h0a6.28,6.28,0,0,0-8.88,0h0L217.4,62.43a109.33,109.33,0,0,0-66.76-27.71V6.28A6.28,6.28,0,0,0,144.36,0h0a6.28,6.28,0,0,0-6.28,6.28V34.72A109.33,109.33,0,0,0,71.31,62.43L51.17,42.28a6.28,6.28,0,0,0-8.88,0h0a6.28,6.28,0,0,0,0,8.88h0L62.42,71.31a109.33,109.33,0,0,0-27.71,66.76H6.28a6.28,6.28,0,0,0,0,12.56H34.72a109.4,109.4,0,0,0,27.7,66.77L42.28,237.54a6.29,6.29,0,1,0,8.89,8.89l20.14-20.14A109.33,109.33,0,0,0,138.07,254v28.43a6.28,6.28,0,0,0,12.56,0V254a109.33,109.33,0,0,0,66.76-27.71l20.14,20.14a6.29,6.29,0,1,0,8.89-8.89L226.28,217.4A109.4,109.4,0,0,0,254,150.64h28.43a6.29,6.29,0,0,0,0-12.57Zm-51.84,0h-51.8a34.81,34.81,0,0,0-5.64-13.63l36.59-36.59a86.06,86.06,0,0,1,20.86,50.22ZM200.86,79l-36.59,36.59A34.79,34.79,0,0,0,150.64,110V58.12A86.09,86.09,0,0,1,200.86,79ZM138.07,58.12v51.8a34.81,34.81,0,0,0-13.63,5.64L87.85,79A86.09,86.09,0,0,1,138.07,58.12ZM79,87.85l36.59,36.59A34.79,34.79,0,0,0,110,138.07H58.12A86.09,86.09,0,0,1,79,87.85ZM58.12,150.64h51.8a34.79,34.79,0,0,0,5.63,13.63L79,200.86A86.09,86.09,0,0,1,58.12,150.64Zm29.73,59.11,36.59-36.59a34.81,34.81,0,0,0,13.63,5.64v51.8A86.11,86.11,0,0,1,87.85,209.75Zm62.79,20.84v-51.8a34.79,34.79,0,0,0,13.63-5.63l36.59,36.59a86.1,86.1,0,0,1-50.22,20.84Zm59.11-29.73-36.59-36.59a34.81,34.81,0,0,0,5.64-13.63h51.8A86.11,86.11,0,0,1,209.75,200.86Z"/>
	<circle class="cls-1" cx="144.6" cy="144.12" r="17.84"/>
	<circle class="cls-3" cx="144.6" cy="144.12" r="12.63"/>
</svg>