<svg xmlns="http://www.w3.org/2000/svg" viewBox="0 0 100 100"><title>wheel-anchor-pattern</title><path d="M40.24,32.24c.43.33.84.61,1.22.93a5.08,5.08,0,0,1,1.29,1.59,3.65,3.65,0,0,1,.34,1,.56.56,0,0,1-.64.73,2.84,2.84,0,0,1-.91-.23,6.14,6.14,0,0,1-2.45-2.21l-.25-.39a13.12,13.12,0,0,1-3,1.77,13,13,0,0,1-3.3.81c.07.57.17,1.1.19,1.63a5,5,0,0,1-.45,2.52c-.16.31-.36.62-.76.62s-.61-.3-.76-.61a5.15,5.15,0,0,1-.33-.93,6.31,6.31,0,0,1,0-2.9c0-.09,0-.18.06-.33a11.44,11.44,0,0,1-6.27-2.6c-.09.15-.16.26-.24.37a6.38,6.38,0,0,1-2.32,2.18,2,2,0,0,1-1.06.3c-.5,0-.78-.32-.65-.81a4.61,4.61,0,0,1,.49-1.17,6,6,0,0,1,2-2l.34-.22a12.62,12.62,0,0,1-1.78-2.93,12.1,12.1,0,0,1-.82-3.3c-.31.05-.6.12-.9.15a6,6,0,0,1-3-.27,2.33,2.33,0,0,1-.66-.4.58.58,0,0,1,0-1,2,2,0,0,1,.56-.34A5.45,5.45,0,0,1,19,23.86c.4,0,.81.12,1.26.19a12.82,12.82,0,0,1,.83-3.29,12.62,12.62,0,0,1,1.78-2.93l-.4-.27a6.19,6.19,0,0,1-1.94-1.94,4.26,4.26,0,0,1-.51-1.2.63.63,0,0,1,.75-.83,2.74,2.74,0,0,1,.89.29A6.24,6.24,0,0,1,24,16.07l.18.28s0,0,.11.07a11.27,11.27,0,0,1,6.23-2.56c0-.2-.06-.36-.09-.52a6,6,0,0,1,.09-3,3.49,3.49,0,0,1,.5-1,.61.61,0,0,1,1,0,2.38,2.38,0,0,1,.53,1,6.54,6.54,0,0,1,0,3.14c0,.1,0,.21-.06.38a11.32,11.32,0,0,1,6.26,2.58l.23-.32a6.25,6.25,0,0,1,2-2,5,5,0,0,1,1.16-.52c.67-.19,1.05.19.92.87a4,4,0,0,1-1,1.85,10.45,10.45,0,0,1-.83.8c-.3.24-.62.45-1,.71A11.22,11.22,0,0,1,42.83,24a2,2,0,0,0,.29,0,6.26,6.26,0,0,1,3.3.06,2.88,2.88,0,0,1,.85.4.63.63,0,0,1,0,1.16,2.76,2.76,0,0,1-.77.38,6.5,6.5,0,0,1-3.22.12L42.84,26A11.24,11.24,0,0,1,40.24,32.24Zm-8.18-4.38c-.08.56-.06,6.35,0,6.65A8.66,8.66,0,0,0,38,32.07l-4.73-4.68Zm1.17-5.14L38,18a9,9,0,0,0-5.88-2.42c-.11.4-.1,6.36,0,6.67Zm5.41,8.68.1,0a.24.24,0,0,0,.09-.08A9.32,9.32,0,0,0,41.11,26a3.61,3.61,0,0,0,0-.46c-.65-.11-6.47-.07-6.75,0l-.47,1.13ZM22,25.54c-.11,1.83,1.27,5.08,2.48,5.86l4.69-4.74-.47-1.12Zm6.72-1,.42-1-4.72-4.79A8.51,8.51,0,0,0,22,24.54Zm12.34,0c.26-1.48-1.2-5-2.4-5.81L34,23.51l.42,1Zm-10,10V27.86l-1.12-.46L25.2,32.2A9.44,9.44,0,0,0,31,34.57ZM29.92,22.71l1.1-.46V15.54a9.45,9.45,0,0,0-5.84,2.38Zm1.66.56A1.77,1.77,0,0,0,29.75,25a1.81,1.81,0,1,0,1.83-1.76Z"/><path d="M75.28,67.56h4.84v2.1H75.35l.49,12.64a6.16,6.16,0,0,0,4.3-5.09H78.63l2.78-2.88,2.83,2.86H82.65c-.13.57-.22,1.13-.38,1.66A8.6,8.6,0,0,1,77,84.48a9.2,9.2,0,0,0-3,1.72l-.25.18-.54-.47a8.88,8.88,0,0,0-2.51-1.37,8.68,8.68,0,0,1-5.59-6.49c-.06-.26-.09-.54-.14-.85H63.38l2.79-2.84,2.77,2.83H67.51a6.14,6.14,0,0,0,4.28,5.11l.49-12.62H67.52v-2.1h4.89c0-.52,0-1,0-1.49,0-.08-.17-.17-.28-.22a4.39,4.39,0,0,1-2.78-3.33A4.28,4.28,0,0,1,71.11,58a4.33,4.33,0,0,1,4.94-.31,4.21,4.21,0,0,1,2.31,4.22,4.34,4.34,0,0,1-2.85,3.93c-.24.11-.33.22-.3.48S75.26,67.12,75.28,67.56Zm-4.21-5.87a2.75,2.75,0,1,0,2.68-2.76A2.72,2.72,0,0,0,71.07,61.69Z"/></svg>