<svg xmlns="http://www.w3.org/2000/svg" viewBox="0 0 235.75 235.75"><title>gn-bolt-circle_1</title><circle cx="117.88" cy="117.88" r="116.44"/><path d="M117.88,2.88a115,115,0,1,1-115,115,115,115,0,0,1,115-115m0-2.88A117.88,117.88,0,0,0,34.52,201.23,117.88,117.88,0,0,0,201.23,34.52,117.13,117.13,0,0,0,117.88,0Z" fill="#ffc64f"/><path d="M181.87,79.56,180,83.64l.82-5.75-3.09,9.87.57-3.54L163.78,114l-10.53,14.28,7.27-7.56L154.2,134.3l.21-2.64-2.12,5.86L148.52,134l-.5-.49L136.54,121.4c-.72-.75-1.42-1.53-2.09-2.33l-11.51-13.56.44,5.2-1.12-3,.33,3.9-.55-1.26-6.63,25.21-.91,9.49-.52-4-.65,2.46-2.55,4.06,2-2-6.31,24-1.17,11.2.6-13.59-5.54,22.3,2.7-6.93-7.44,28.3,3.1-4.63-.21,2.63,2.09-6.29.65,2.57,2.12-5.86-.57,3.54,6.06-12.13L107.28,199l4.3-13.71,1.47-3,4.31-8.64,2.26-9.36,1.07,2.45,4.89-9.5-.33,1.33,2.09-6.29-.5,4.41,1.66-1,1.52,2.49,26.45,28.76,1.62-6.68.33.9,1-6.25.23,2.6,13.28-60.22,4.26-5.89-3.87,4.25,8.63-35.9m-46.8,76.69,18.25,15.31,3.52-5.8-1.62,1.45,11.66-38.46L165,137.75l.76-1.37-1.11,7.52-.15-1.74-8,34.3-.26-3-.83,5.26a.34.34,0,0,1-.12-.06h0L137.69,161l1.84,1.15Zm-10-41.07-.72-2.77,16.79,17.13-1.38-.76,4.46,6.17-16-13.92,2.24.68L127.22,120l-1.41-1.19-.18.88L112,162.11l.6-3.76-.79.94,1.11-2.28-.43,0,11.33-44.29Z" fill="#cc9a40"/><path d="M180.14,79.12l-1.84,4.09.82-5.75L176,87.33l.57-3.54L162,113.55l-10.53,14.28,7.27-7.55-6.32,13.59.22-2.64-2.13,5.85-3.76-3.52-.51-.48L134.81,121c-.72-.76-1.42-1.53-2.1-2.33L121.2,105.07l.44,5.21-1.12-3,.33,3.91-.54-1.27-6.63,25.22-.91,9.48-.53-4-.65,2.46-2.54,4.06,2-2-6.31,24-1.18,11.19.6-13.58-5.53,22.3,2.7-6.93-7.44,28.29,3.1-4.63-.22,2.64,2.09-6.29.66,2.56,2.12-5.85-.57,3.54,6.05-12.13-1.58,8.26,4.3-13.72,1.48-3,4.3-8.63,2.27-9.36,1.06,2.45,4.89-9.51-.32,1.34,2.08-6.29-.5,4.41,1.66-1,1.53,2.49,26.45,28.76,1.62-6.69.33.91,1-6.26.22,2.6,13.29-60.22,4.25-5.89-3.86,4.26,8.62-35.9M133.38,156l18.24,15.3,3.52-5.79L153.52,167l11.66-38.46-1.94,8.82L164,136l-1.11,7.51-.14-1.73-8,34.3-.25-3-.83,5.26-.13-.07h0L136,160.59l1.84,1.15Zm-10-41.07-.72-2.77,16.78,17.12-1.37-.75,4.45,6.17-16-13.93,2.25.69-3.22-1.91-1.41-1.19-.19.88-13.66,42.43.6-3.76-.79.94,1.12-2.28-.44,0,11.33-44.29Z" fill="#ffc64f"/><path d="M104.92,26.21,88.4,54.88l.11-5.15-.86,6.45L59.18,103.54,60.92,102l-3.23,4.66.78-.38-3.07,5.35,34.93-2.41,2.52-.68.46,1.68L95.7,107l-2.52,5.37.61-1.06-2.67,9.19,2.2-.94L89,127.08l-2.52,8.27-.86,2.83L80,149.75l4.07-6.35L80.51,155l1.81-2.66-2.23,5.12,2-1.27-2.52,5.38,1.49-1.85-.84,4.93,12.61-23-2.52,6.17,10.14-17.92-8,9.21,6.13-8,10.69-19.49.08,2.52.85-4.21,1.09-2-2.82,2.29,5.26-6.73L125,83l-1.13.48,2.62-2.33-2.56,1.23,3.5-3.11L111.55,81c-.93.1-1.86.18-2.8.22l-14.92.81H93.2l-4.62,0,2.23-5.12-1.49,1.85L93.59,66l.07,9.39,2-15.78,8.88-28.33L102.68,34l4.07-8.33-3,4.25,1.32-3.79M81.68,105.94l1.91.39L61.32,107h0a.27.27,0,0,1-.12,0L63.9,103l-2,1.82L77.79,77.55l-1.16,1L80.54,73l-.35,1.36,4.16-6.94L68.24,99.64l-.17-1.94-1.28,5.94,21.3,1.29Zm40.7-22.44-19.93,35.79-.26-.29-.68,2.17.07-1.1-1.93,2.82,17.26-36,.43-.69-1.65-.09-3.28-.74,1.88.94-19-.83,6.7-1.27-1.36-.35,21.47-.79-2.18,1.35Z" fill="#cc9a40"/><path d="M103.36,25.44,86.85,54.1,87,49l-.87,6.46L57.62,102.76l1.75-1.55-3.23,4.65.77-.38-3.07,5.35,34.93-2.4,2.53-.69.45,1.69,2.4-3.18-2.52,5.38.61-1.07-2.68,9.19,2.2-.94-4.29,7.49L85,134.57l-.87,2.83L78.43,149l4.06-6.34L79,154.25l1.81-2.66-2.23,5.12,2-1.26L78,160.82,79.51,159l-.84,4.92,12.6-23-2.52,6.17L98.9,129.17l-8,9.2,6.14-8,10.69-19.5.08,2.52.84-4.21,1.1-2-2.82,2.29,5.25-6.73,11.23-20.48-1.13.48,2.62-2.33-2.56,1.23,3.49-3.11L110,80.26c-.93.1-1.86.18-2.79.23l-14.93.8h-.62l-4.62,0,2.22-5.11L87.77,78,92,65.26l.07,9.39,2-15.77,8.87-28.34-1.81,2.66,4.07-8.32-3,4.24,1.33-3.79M80.12,105.16l1.92.39-22.27.63h0a.2.2,0,0,1-.11,0l2.7-3.93-2,1.81L76.24,76.78l-1.16,1L79,72.24l-.36,1.36,4.17-6.94L66.68,98.87l-.16-2-1.28,6,21.29,1.28Zm40.7-22.44-19.93,35.79-.26-.29-.67,2.17.06-1.1-1.93,2.82,17.27-36,.42-.68-1.65-.1-3.27-.74,1.88.94-19-.82,6.7-1.27-1.36-.36,21.47-.79-2.17,1.35Z" fill="#ffc64f"/></svg>