<svg xmlns="http://www.w3.org/2000/svg" viewBox="0 0 128.47 194.71"><title>n-bolt</title><path d="M128.42,3.06l-2.69,6L126.94.63,122.42,15l.84-5.17L102,53.31,86.64,74.15l10.61-11L88,83l.32-3.85-3.1,8.55-5.5-5.14-.74-.7L62.26,64.13q-1.57-1.65-3.06-3.39L42.4,40.93l.65,7.6L41.4,44.2l.49,5.7-.8-1.85-9.67,36.8L30.09,98.7l-.77-5.87-.94,3.59-3.72,5.92,2.92-2.89-9.21,35-1.71,16.34L17.53,131,9.45,163.54l3.94-10.12L2.53,194.71,7.06,188l-.31,3.85,3-9.18,1,3.74,3.1-8.55L13,183l8.84-17.71-2.31,12.06,6.28-20L28,153l6.29-12.59,3.3-13.67,1.56,3.58,7.13-13.87-.47,2,3-9.18-.73,6.43,2.43-1.48,2.22,3.64,38.61,42L93.71,150l.48,1.32,1.4-9.13.33,3.8,19.39-87.9,6.21-8.59-5.64,6.21,12.59-52.4M60.17,115.27l26.62,22.34,5.15-8.46-2.37,2.11,17-56.13L103.75,88l1.1-2-1.62,11L103,94.43l-11.7,50.06L91,140.06l-1.21,7.68a.51.51,0,0,1-.18-.09h0L63.92,122l2.7,1.68ZM45.53,55.33l-1.05-4,24.5,25-2-1.1,6.5,9L50.08,63.86l3.27,1-4.7-2.79-2-1.73-.27,1.28L26.39,123.55l.88-5.5-1.16,1.38,1.63-3.33-.63.06L43.64,51.51Z" fill="#cc9a40"/><path d="M125.88,2.42l-2.68,6L124.4,0l-4.51,14.4.83-5.17L99.47,52.67,84.11,73.52l10.61-11L85.49,82.32l.31-3.85L82.7,87l-5.49-5.14-.74-.71L59.72,63.5c-1-1.1-2.07-2.24-3-3.4L39.87,40.3l.64,7.59-1.64-4.32.48,5.7-.79-1.85-9.67,36.8L27.56,98.06l-.77-5.87-.95,3.6-3.71,5.92,2.92-2.89-9.21,35-1.71,16.34L15,130.36,6.92,162.9l3.94-10.12L0,194.08l4.53-6.76-.32,3.85L7.26,182l1,3.75,3.1-8.55-.84,5.17,8.83-17.71L17,176.71l6.27-20,2.16-4.32,6.29-12.6L35,126.11l1.55,3.57,7.14-13.87-.48,2,3-9.18L45.56,115,48,113.54l2.22,3.64,38.6,42,2.36-9.76.49,1.32,1.4-9.12.32,3.79,19.39-87.89,6.22-8.6-5.64,6.21L125.93,2.71M57.64,114.63,84.26,137l5.14-8.47L87,130.63l17-56.13-2.85,12.86,1.11-2-1.62,11-.22-2.53L88.79,143.86l-.37-4.43-1.22,7.68L87,147h0L61.39,121.33,64.08,123ZM43,54.69l-1.06-4,24.5,25-2-1.1,6.5,9L47.55,63.23l3.27,1-4.7-2.79L44.06,59.7,43.79,61,23.85,122.91l.88-5.49-1.15,1.37,1.63-3.32-.64,0L41.11,50.88Z" fill="#ffc64f"/></svg>