<svg xmlns="http://www.w3.org/2000/svg" viewBox="0 0 186.91 271.46"><title>gn-bolt</title><path d="M186.86,79.8l-2.68,6,1.2-8.39-4.52,14.4.84-5.17-21.25,43.44L145.08,150.9l10.61-11-9.22,19.83.31-3.85-3.1,8.55-5.5-5.14-.73-.71L120.7,140.88c-1-1.1-2.07-2.24-3.06-3.4l-16.79-19.8.64,7.59L99.85,121l.48,5.7-.79-1.85-9.68,36.8-1.33,13.84-.76-5.87-1,3.6-3.72,5.92L86,176.2l-9.21,35L75.1,227.57,76,207.74,67.9,240.28l3.93-10.12L61,271.46l4.52-6.76-.31,3.86,3-9.19,1,3.75,3.1-8.55-.84,5.17L80.29,242,78,254.09l6.27-20,2.16-4.32,6.28-12.6L96,203.49l1.55,3.57,7.13-13.87-.47,2,3-9.18-.73,6.43,2.42-1.48,2.22,3.64,38.61,42,2.36-9.76.49,1.32L154,219l.32,3.79,19.39-87.89,6.21-8.6-5.64,6.21,12.59-52.39M118.61,192l26.63,22.35,5.14-8.47L148,208l17-56.13-2.84,12.86,1.1-2-1.62,11-.21-2.53-11.69,50.06-.38-4.43-1.21,7.68a.51.51,0,0,1-.18-.09h0l-25.62-25.69,2.69,1.68ZM104,132.07l-1.06-4,24.5,25-2-1.1,6.5,9-23.39-20.32,3.27,1-4.69-2.79L105,137.08l-.27,1.28L84.83,200.29l.88-5.49-1.16,1.37,1.63-3.32-.63.05,16.53-64.64Z" fill="#cc9a40"/><path d="M184.33,79.17l-2.68,6,1.2-8.38-4.52,14.4.84-5.17-21.25,43.44-15.37,20.84,10.61-11-9.23,19.83.32-3.85-3.1,8.55-5.5-5.14-.74-.71-16.74-17.67q-1.58-1.67-3.06-3.4l-16.8-19.8.65,7.59-1.64-4.32L97.8,126l-.8-1.84L87.33,161,86,174.81l-.77-5.87-.94,3.59-3.72,5.93,2.92-2.89-9.21,35-1.71,16.34.87-19.83-8.08,32.55,3.94-10.12-10.86,41.3L63,264.07l-.31,3.85,3-9.18,1,3.74,3.1-8.54-.84,5.17,8.84-17.71-2.31,12,6.28-20,2.15-4.32,6.29-12.6,3.3-13.66L95,206.43l7.13-13.87-.47,1.95,3-9.18-.72,6.44,2.42-1.48,2.22,3.63,38.61,42,2.36-9.76.48,1.32,1.4-9.13.33,3.8,19.39-87.89,6.21-8.6-5.64,6.21,12.59-52.39m-68.3,111.92,26.62,22.34,5.15-8.46-2.37,2.11,17-56.13-2.84,12.87,1.1-2-1.62,11-.21-2.54-11.69,50.07-.38-4.43-1.21,7.67a.31.31,0,0,1-.18-.09h0l-25.63-25.69,2.7,1.69Zm-14.64-59.94-1-4,24.5,25-2-1.11,6.5,9L106,140l3.27,1-4.7-2.78-2-1.74-.27,1.28L82.3,199.66l.88-5.49L82,195.54l1.63-3.32-.63.05,16.53-64.64Z" fill="#ffc64f"/><path d="M74.55,2,50.44,43.79l.16-7.52-1.26,9.42L7.78,114.81l2.55-2.27-4.71,6.8,1.13-.56-4.48,7.8,51-3.51,3.69-1,.66,2.45,3.49-4.63-3.68,7.85.9-1.56L54.4,139.61l3.22-1.37-6.28,10.92-3.67,12.07-1.26,4.14-8.26,16.88L44.08,173l-5.17,17,2.65-3.88-3.26,7.47,2.93-1.84-3.67,7.85,2.17-2.7L38.51,204,56.9,170.48l-3.68,9L68,153.35,56.37,166.78l9-11.68,15.6-28.46.11,3.68,1.24-6.14,1.6-2.92-4.12,3.34,7.67-9.82,16.39-29.9-1.66.71,3.83-3.4L102.25,84l5.1-4.54L84.22,82c-1.35.15-2.72.26-4.08.33L58.36,83.47h-.92l-6.74,0L54,76l-2.17,2.7L58,60.08l.11,13.7,2.85-23L73.91,9.41l-2.64,3.88L77.21,1.13l-4.39,6.2L74.76,1.8M40.63,118.32l2.79.56-32.5.91h0a.48.48,0,0,1-.17-.05L14.68,114l-3,2.65L35,76.88l-1.7,1.52L39,70.26l-.52,2,6.08-10.12L21,109.12l-.24-2.83L18.9,115,50,116.84ZM100,85.56,70.94,137.8l-.38-.43-1,3.17.1-1.61-2.82,4.12,25.2-52.57.62-1-2.41-.14-4.77-1.08,2.74,1.37-27.74-1.2,9.78-1.85-2-.52L99.62,84.9l-3.17,2Z" fill="#cc9a40"/><path d="M72.28.82,48.17,42.65l.16-7.51-1.26,9.42L5.52,113.67l2.54-2.27-4.71,6.8,1.13-.56L0,125.45l51-3.51,3.69-1,.66,2.46,3.49-4.64-3.67,7.85.89-1.56-3.91,13.42,3.22-1.37L49.07,148,45.4,160.09l-1.26,4.14-8.26,16.89,5.93-9.27-5.16,17,2.64-3.88L36,192.41,39,190.56l-3.67,7.85,2.17-2.69-1.22,7.18,18.39-33.55-3.68,9,14.81-26.15L54.1,165.64l9-11.68,15.6-28.45.11,3.67L80,123l1.6-2.92-4.12,3.35,7.67-9.82,16.39-29.9-1.66.71,3.83-3.41L100,82.85l5.09-4.54L82,80.84c-1.35.14-2.71.25-4.08.32L56.09,82.34h-.91l-6.75,0,3.25-7.47-2.17,2.69,6.23-18.58.1,13.71,2.85-23,13-41.35L69,12.15,74.94,0,70.55,6.2,72.49.66M38.36,117.18l2.79.56-32.5.92h0a.37.37,0,0,1-.17-.05l3.94-5.74-3,2.65L32.69,75.75,31,77.26l5.71-8.13-.52,2L42.26,61,18.74,108l-.24-2.84-1.87,8.68,31.08,1.88Zm59.4-32.75L68.67,136.66l-.38-.42-1,3.16.1-1.6-2.82,4.11,25.2-52.57.62-1L88,88.21l-4.77-1.09L86,88.49l-27.74-1.2L68,85.44l-2-.52,31.34-1.15-3.17,2Z" fill="#ffc64f"/></svg>