<svg xmlns="http://www.w3.org/2000/svg" viewBox="0 0 219.18 84.09"><title>2008</title><path d="M27.05,3.14h.26q-5.14,4.31-5.14,5.58,5.63-5.45,15.6-5.45T54.08,9.56l1,3.87q-.26,4.88-12,22.63A157.26,157.26,0,0,1,31.44,50.6,8.83,8.83,0,0,0,30,54.08c.61,0,2.14-1.54,4.57-4.62h.13v.18a79.05,79.05,0,0,1-6,9h.13q5.94-4.8,19.6-14a74.41,74.41,0,0,0,10-8.57A13.51,13.51,0,0,1,62.34,32v.31A74.85,74.85,0,0,1,51.92,49.07a204.54,204.54,0,0,0-13,16.56,35,35,0,0,1-7.47,6.86h-.13c0-.73,1.14-2.07,3.43-4l.44-.7h-.13q-4.3,2.67-13.58,11.73Q15.8,84.1,11.32,84.09l-.18-.44,1.32-2.42h-.18q-6.85-1.14-6.85-1.84,7-18.19,12.74-24.17l12.88-16q8.34-12.3,9-14.72l.13-1.15a10.5,10.5,0,0,0-.7-2.72h.13l-4.13-5.27h-.18v.13A11.39,11.39,0,0,1,37,18.74l-.26.27A5,5,0,0,0,32,16.46q-6.88,0-19,8.7A6.34,6.34,0,0,0,11.14,29l2.15-1.85v.13A13.59,13.59,0,0,0,12,32V33.9q0,2.64,3.12,6.73H15A46.35,46.35,0,0,0,8.86,37.2Q3,33.38,3,30.3a14.61,14.61,0,0,1-1-3.56,4.1,4.1,0,0,1,1.27,1.72h.18v-.14l-.31-1.89q0-4.92,5.85-15.29a35.24,35.24,0,0,1,3.6-3.69l.13.13A31.79,31.79,0,0,0,9.43,21l.13,1h.17A32.62,32.62,0,0,1,17.86,9.87,45,45,0,0,1,27.05,3.14ZM9.43,22.43l-.14,1h.14l.13-.14h.17l-.17-.88ZM25.6,61.77h.13l1.71-1.72C27.21,60.05,26.59,60.62,25.6,61.77Z" fill="#cc9a40"/><path d="M83.17,2.66q7.2,1,8.35,2.15a20.67,20.67,0,0,1,6.32,4.88,44.89,44.89,0,0,0,6.46,6.9v-.13A20.16,20.16,0,0,1,103,11.4h.3q4,9.1,4,12.53l1.76,7.6h.13c0-.29.24-.58.71-.88l.13.44q0,3.25-3.87,12.79-.57,4.44-4.44,10.9-3.92,11.86-7.78,16.08-12,12.66-15.2,12.66a5.57,5.57,0,0,1-2.73.57h-.13q-2.24,0-5.32-6.77-.3,0-.3-.39l-.13-.18H70v.75h-.3v-.31l-.14-.7.14-.75q-.84-4.53-4-15.07-.89-9.72-1.89-16.22l1.32-6.77v-.13h-.18a47.52,47.52,0,0,1-3.87,6v-.13a105.63,105.63,0,0,0,3.87-14.63,119.74,119.74,0,0,1,4.75-13.23l1-4.31q.3,0,4-3.6h-.14l-1.84.57h-.18q1-1.28,6.33-3.12Q79.91,5.12,83.17,2.66ZM77.28,30.83h.17l3-2v.26A71.45,71.45,0,0,0,74,42.43,89.71,89.71,0,0,0,76.44,64c1.44,1.76,2.16,3,2.16,3.61q7.16-7.47,8.17-7.91l.57-.14v.14l-.13,2.46v.3h.13l10.2-22.71q2.71-6.6,2.72-10.2l-.13-4.57q0-.71-2.46-4.18,0,1.23-2.15,7.61,0,.57-.27.57h-.13v-.13a30.14,30.14,0,0,0-3-9.5A4.65,4.65,0,0,0,90.64,18l-.13.13h-.14Q85.2,17.3,85.19,17q-2,2.59-7.74,13.18Z" fill="#cc9a40"/><path d="M133.22,2.66q7.22,1,8.35,2.15a20.83,20.83,0,0,1,6.33,4.88,44.41,44.41,0,0,0,6.46,6.9v-.13A20.47,20.47,0,0,1,153,11.4h.31q4,9.1,4,12.53l1.75,7.6h.14c0-.29.23-.58.7-.88l.13.44q0,3.25-3.87,12.79-.57,4.44-4.43,10.9Q147.85,66.65,144,70.86q-12,12.66-15.21,12.66a5.53,5.53,0,0,1-2.72.57h-.13q-2.25,0-5.32-6.77c-.21,0-.31-.13-.31-.39l-.13-.18H120v.75h-.31v-.31l-.13-.7.13-.75q-.84-4.53-4-15.07-.89-9.72-1.89-16.22l1.32-6.77v-.13H115a46.67,46.67,0,0,1-3.86,6v-.13A106.93,106.93,0,0,0,115,28.81a124.14,124.14,0,0,1,4.75-13.23l1-4.31q.32,0,4-3.6h-.13l-1.85.57h-.17q1-1.28,6.32-3.12C129.62,5.12,131.05,4.3,133.22,2.66Zm-5.89,28.17h.18l3-2v.26A70.83,70.83,0,0,0,124,42.43,89.71,89.71,0,0,0,126.5,64c1.43,1.76,2.15,3,2.15,3.61q7.17-7.47,8.17-7.91l.58-.14v.14l-.14,2.46v.3h.14l10.19-22.71q2.73-6.6,2.73-10.2l-.14-4.57q0-.71-2.46-4.18,0,1.23-2.15,7.61c0,.38-.09.57-.26.57h-.14v-.13a29.64,29.64,0,0,0-3-9.5A4.65,4.65,0,0,0,140.69,18l-.13.13h-.13q-5.19-.87-5.19-1.14-2,2.59-7.73,13.18Z" fill="#cc9a40"/><path d="M195.05,2h.13q4,.8,11.78,6.11,5.23,3.92,5.23,5.23c1,1.23,1.57,1.84,1.71,1.84l2.16-1.27.13.44q0,2.46-11.07,14l-.44,1h.17l.4.13q5-1.57,8.79-3.12l-4,5.1v.13h2.11A57,57,0,0,1,217,42.56a64.89,64.89,0,0,1,2.16,11.6H219l-1.27-1.27q1.44,3.73,1.45,12.79-1.23,0-9.36,7.78Q198.26,81,195.49,81c-1,.35-3.57,1-7.82,1.85l-2.24,1.27q-4.83-1.19-17.76-12.48-3-3.21-6.5-7.65v-.13h.13l3.82,1.54v-.26c-.61-1-1.17-4.14-1.66-9.5L162,51.35c1.24-.29,2.8-2.24,4.71-5.84A193.69,193.69,0,0,0,178.18,27.8l.3-.84a27.89,27.89,0,0,1-6.1-10.77,7.89,7.89,0,0,1-1.28-2.72,66.7,66.7,0,0,1,6.64-4.39V8.81h-.13l-5.54.57-.4-.44q2.12-2,15.6-3.25l3.52-.13.57-.18,10.06,1.45a14.56,14.56,0,0,0-5.8-4.13c0-.17-.14-.26-.44-.26l-.13-.18ZM176.46,52.62v.84l.44-.44Zm9.8-15.6q0,1-6.68,10.2L177,53a51.73,51.73,0,0,1,4.84,9.8l-.13.13v.18a23.59,23.59,0,0,1,2,8.79l.71,1q4.65-.57,12.92-5.23,0-1.44,7.2-9.22-1.14-3.74-1.14-11.78l-.83-3.25h-.14V44q-2.37-4.53-8.21-6.68L190,36.58Zm1-26.1v.13c.27.74,1.73,1.6,4.4,2.6v.26A14.07,14.07,0,0,0,186,15.45v.17q0,1.41-1.85,6.81l2-1.14a2.1,2.1,0,0,1,.4,1.28v.7L186.39,25c.53,0,1.34,1,2.42,3.12,1.29.38,2,.75,2.15,1.1A31,31,0,0,0,201,22.13q4.78-5.67,4.79-7.08h-.27q-1.31,0-5.09-3.25l-1.58-.57L200,12.5h-.13q-3.39-1.58-10.95-1.58Z" fill="#cc9a40"/><path d="M25.05,1.14h.26q-5.14,4.31-5.14,5.58,5.63-5.44,15.6-5.45T52.08,7.56l1,3.87q-.26,4.88-12,22.63A157.26,157.26,0,0,1,29.44,48.6,8.83,8.83,0,0,0,28,52.08c.61,0,2.14-1.54,4.57-4.62h.13v.18a79.05,79.05,0,0,1-6,9h.13q5.94-4.8,19.6-14a74.41,74.41,0,0,0,10-8.57A13.51,13.51,0,0,1,60.34,30v.31A74.85,74.85,0,0,1,49.92,47.07a204.54,204.54,0,0,0-13,16.56,35,35,0,0,1-7.47,6.86h-.13c0-.73,1.14-2.07,3.43-4l.44-.7h-.13q-4.3,2.67-13.58,11.73Q13.8,82.1,9.32,82.09l-.18-.44,1.32-2.42h-.18q-6.85-1.14-6.85-1.84,7-18.19,12.74-24.17l12.88-16q8.34-12.3,9-14.72l.13-1.15a10.5,10.5,0,0,0-.7-2.72h.13l-4.13-5.27h-.18v.13A11.39,11.39,0,0,1,35,16.74l-.26.27A5,5,0,0,0,30,14.46q-6.89,0-19,8.7A6.34,6.34,0,0,0,9.14,27l2.15-1.85v.13A13.59,13.59,0,0,0,10,30V31.9q0,2.64,3.12,6.73H13A46.35,46.35,0,0,0,6.86,35.2Q1,31.37,1,28.3a14.61,14.61,0,0,1-1-3.56,4.1,4.1,0,0,1,1.27,1.72h.18v-.14l-.31-1.89Q1.14,19.51,7,9.14a35.24,35.24,0,0,1,3.6-3.69l.13.13A31.79,31.79,0,0,0,7.43,19l.13,1h.17A32.62,32.62,0,0,1,15.86,7.87,45,45,0,0,1,25.05,1.14ZM7.43,20.43l-.14,1h.14l.13-.14h.17l-.17-.88ZM23.6,59.77h.13l1.71-1.72C25.21,58.05,24.59,58.62,23.6,59.77Z" fill="#ffc64f"/><path d="M81.17.66q7.2,1,8.35,2.15a20.67,20.67,0,0,1,6.32,4.88,44.89,44.89,0,0,0,6.46,6.9v-.13A20.16,20.16,0,0,1,101,9.4h.3q4,9.11,4,12.53l1.76,7.6h.13c0-.29.24-.58.71-.88l.13.44q0,3.25-3.87,12.79-.57,4.44-4.44,10.9-3.92,11.86-7.78,16.08-12,12.66-15.2,12.66a5.57,5.57,0,0,1-2.73.57h-.13q-2.24,0-5.32-6.77-.3,0-.3-.39l-.13-.18H68v.75h-.3v-.31l-.14-.7.14-.75q-.84-4.53-4-15.07-.88-9.72-1.89-16.22l1.32-6.77v-.13h-.18a47.52,47.52,0,0,1-3.87,6v-.13a105.63,105.63,0,0,0,3.87-14.63,119.74,119.74,0,0,1,4.75-13.23l1-4.31q.3,0,4-3.6h-.14l-1.84.57h-.18q1-1.28,6.33-3.12Q77.91,3.12,81.17.66ZM75.28,28.83h.17l3-2v.26A71.45,71.45,0,0,0,72,40.43,89.71,89.71,0,0,0,74.44,62c1.44,1.76,2.16,3,2.16,3.61q7.16-7.47,8.17-7.91l.57-.14v.14l-.13,2.46v.3h.13l10.2-22.71q2.71-6.6,2.72-10.2l-.13-4.57q0-.71-2.46-4.18,0,1.23-2.15,7.61,0,.57-.27.57h-.13v-.13a30.14,30.14,0,0,0-3-9.5A4.65,4.65,0,0,0,88.64,16l-.13.13h-.14Q83.2,15.3,83.19,15q-2,2.6-7.74,13.18Z" fill="#ffc64f"/><path d="M131.22.66q7.22,1,8.35,2.15a20.83,20.83,0,0,1,6.33,4.88,44.41,44.41,0,0,0,6.46,6.9v-.13A20.47,20.47,0,0,1,151,9.4h.31q4,9.11,4,12.53l1.75,7.6h.14c0-.29.23-.58.7-.88l.13.44q0,3.25-3.87,12.79-.57,4.44-4.43,10.9Q145.85,64.65,142,68.86q-12,12.66-15.21,12.66a5.53,5.53,0,0,1-2.72.57h-.13q-2.25,0-5.32-6.77c-.21,0-.31-.13-.31-.39l-.13-.18H118v.75h-.31v-.31l-.13-.7.13-.75q-.84-4.53-4-15.07-.89-9.72-1.89-16.22l1.32-6.77v-.13H113a46.67,46.67,0,0,1-3.86,6v-.13A106.93,106.93,0,0,0,113,26.81a124.14,124.14,0,0,1,4.75-13.23l1-4.31q.32,0,4-3.6h-.13l-1.85.57h-.17q1-1.28,6.32-3.12C127.62,3.12,129.05,2.3,131.22.66Zm-5.89,28.17h.18l3-2v.26A70.83,70.83,0,0,0,122,40.43,89.71,89.71,0,0,0,124.5,62c1.43,1.76,2.15,3,2.15,3.61q7.17-7.47,8.17-7.91l.58-.14v.14l-.14,2.46v.3h.14l10.19-22.71q2.73-6.6,2.73-10.2l-.14-4.57q0-.71-2.46-4.18,0,1.23-2.15,7.61c0,.38-.09.57-.26.57h-.14v-.13a29.64,29.64,0,0,0-3-9.5A4.65,4.65,0,0,0,138.69,16l-.13.13h-.13q-5.19-.87-5.19-1.14-2,2.6-7.73,13.18Z" fill="#ffc64f"/><path d="M193.05,0h.13q4,.8,11.78,6.11,5.23,3.92,5.23,5.23c1,1.23,1.57,1.84,1.71,1.84l2.16-1.27.13.44q0,2.46-11.07,14l-.44,1h.17l.4.13q5-1.57,8.79-3.12l-4,5.1v.13h2.11A57,57,0,0,1,215,40.56a64.89,64.89,0,0,1,2.16,11.6H217l-1.27-1.27q1.44,3.73,1.45,12.79-1.23,0-9.36,7.78Q196.26,79,193.49,79c-1,.35-3.57,1-7.82,1.85l-2.24,1.27q-4.83-1.19-17.76-12.48-3-3.21-6.5-7.65v-.13h.13l3.82,1.54v-.26c-.61-1-1.17-4.14-1.66-9.5L160,49.35c1.24-.29,2.8-2.24,4.71-5.84A193.69,193.69,0,0,0,176.18,25.8l.3-.84a27.89,27.89,0,0,1-6.1-10.77,7.89,7.89,0,0,1-1.28-2.72,66.7,66.7,0,0,1,6.64-4.39V6.81h-.13l-5.54.57-.4-.44q2.12-2,15.6-3.25l3.52-.13.57-.18,10.06,1.45A14.56,14.56,0,0,0,193.62.7c0-.17-.14-.26-.44-.26l-.13-.18ZM174.46,50.62v.84l.44-.44Zm9.8-15.6q0,1-6.68,10.2L175,51a51.73,51.73,0,0,1,4.84,9.8l-.13.13v.18a23.59,23.59,0,0,1,2,8.79l.71,1q4.65-.57,12.92-5.23,0-1.44,7.2-9.22-1.14-3.74-1.14-11.78l-.83-3.25h-.14V42q-2.37-4.53-8.21-6.68L188,34.58Zm1-26.1v.13c.27.74,1.73,1.6,4.4,2.6v.26A14.07,14.07,0,0,0,184,13.45v.17q0,1.41-1.85,6.81l2-1.14a2.1,2.1,0,0,1,.4,1.28v.7L184.39,23c.53,0,1.34,1,2.42,3.12,1.29.38,2,.75,2.15,1.1A31,31,0,0,0,199,20.13q4.78-5.67,4.79-7.08h-.27q-1.31,0-5.09-3.25l-1.58-.57L198,10.5h-.13q-3.39-1.58-10.95-1.58Z" fill="#ffc64f"/></svg>